<?xml version="1.0" standalone="no"?>
<!DOCTYPE svg PUBLIC "-//W3C//DTD SVG 20010904//EN"
 "http://www.w3.org/TR/2001/REC-SVG-20010904/DTD/svg10.dtd">
<svg version="1.0" xmlns="http://www.w3.org/2000/svg"
 width="500.000000pt" height="500.000000pt" viewBox="0 0 500.000000 500.000000"
 preserveAspectRatio="xMidYMid meet">

<g transform="translate(0.000000,500.000000) scale(0.100000,-0.100000)"
fill="#000000" stroke="none">
<path d="M2069 3450 c-149 -23 -287 -95 -395 -205 -118 -121 -181 -270 -191
-452 l-6 -102 126 -3 126 -3 -60 -72 c-60 -71 -61 -72 -129 -84 -91 -16 -228
-7 -310 20 -58 20 -153 71 -217 117 -13 9 -23 14 -23 11 0 -3 28 -26 63 -50
239 -171 463 -243 672 -217 167 21 334 89 537 219 l96 62 824 4 c457 3 812 1
798 -3 -53 -19 -107 -52 -144 -91 -22 -22 -38 -43 -35 -45 5 -5 223 132 227
143 6 16 -39 174 -73 257 -99 246 -258 351 -396 260 -21 -15 -65 -61 -96 -104
-117 -161 -135 -181 -176 -201 -49 -24 -74 -20 -132 19 -106 72 -142 76 -210
24 -48 -36 -93 -60 -98 -53 -2 2 -14 36 -26 74 -37 113 -86 193 -175 280 -91
90 -178 142 -293 174 -88 24 -208 33 -284 21z m49 -570 c36 -16 222 -164 222
-176 0 -2 -136 -4 -302 -4 l-302 0 49 51 c94 96 185 148 260 148 17 0 49 -8
73 -19z"/>
<path d="M2975 2450 c-17 -7 -9 -13 47 -40 69 -32 168 -63 177 -54 9 8 -63 76
-96 90 -35 15 -97 17 -128 4z"/>
</g>
</svg>
